<svg xmlns="http://www.w3.org/2000/svg" viewBox="0 0 1200 630">
  <defs>
    <pattern id="dots" width="26" height="26" patternUnits="userSpaceOnUse">
      <circle cx="1" cy="1" r="1.4" fill="#ffffff" opacity="0.05"/>
    </pattern>
  </defs>
  <rect width="1200" height="630" fill="#151312"/>
  <rect width="1200" height="630" fill="url(#dots)"/>

  <g transform="translate(90,215)">
    <rect width="200" height="200" rx="44" fill="#1e1b19"/>
    <g fill="#ff5a2e" transform="translate(28,28)">
      <rect x="0" y="0" width="50" height="50" rx="10"/>
      <rect x="16" y="16" width="18" height="18" rx="3" fill="#1e1b19"/>
      <rect x="94" y="0" width="50" height="50" rx="10"/>
      <rect x="110" y="16" width="18" height="18" rx="3" fill="#1e1b19"/>
      <rect x="0" y="94" width="50" height="50" rx="10"/>
      <rect x="16" y="110" width="18" height="18" rx="3" fill="#1e1b19"/>
      <rect x="94" y="94" width="18" height="18" rx="3"/>
      <rect x="126" y="94" width="18" height="18" rx="3"/>
      <rect x="94" y="126" width="18" height="18" rx="3"/>
      <rect x="126" y="126" width="18" height="18" rx="3"/>
    </g>
  </g>

  <g transform="translate(345,270)" font-family="Arial, Helvetica, sans-serif">
    <text x="0" y="0" fill="#ffffff" font-size="72" font-weight="700" letter-spacing="-2">SnapClip</text>
    <text x="0" y="52" fill="#a8a29e" font-size="26" font-weight="400">Copy paste teks &amp; file kecil lewat QR code</text>
    <text x="0" y="90" fill="#78716c" font-size="22" font-weight="400">Gratis &amp; Open Source — tanpa akun, tanpa internet</text>
  </g>

  <g transform="translate(345,390)">
    <rect width="140" height="40" rx="20" fill="#de4718"/>
    <text x="70" y="26" fill="#ffffff" font-family="Arial, Helvetica, sans-serif" font-size="16" font-weight="700" text-anchor="middle">FREE</text>
    <rect x="156" width="200" height="40" rx="20" fill="none" stroke="#44403c" stroke-width="1.5"/>
    <text x="256" y="26" fill="#d6d3d1" font-family="Arial, Helvetica, sans-serif" font-size="16" font-weight="600" text-anchor="middle">OPEN SOURCE</text>
  </g>
</svg>
